<svg width="1280" height="960" viewBox="0 0 1280 960" fill="none" xmlns="http://www.w3.org/2000/svg">
<rect width="1280" height="960" fill="#1E1E1E"/>
<g clip-path="url(#clip0_0_1)">
<path d="M1280 0H0V960H1280V0Z" fill="#232323"/>
<path d="M614 24H26C22.6863 24 20 27.2236 20 31.2V64.8C20 68.7765 22.6863 72 26 72H614C617.314 72 620 68.7765 620 64.8V31.2C620 27.2236 617.314 24 614 24Z" fill="#444444"/>
<rect x="34" y="34" width="121" height="29" fill="#505050"/>
<path d="M52.22 40.7C52.1533 40.8467 52.0933 41 52.04 41.16C52 41.32 51.96 41.5 51.92 41.7C51.8133 42.2333 51.6733 42.82 51.5 43.46C51.3267 44.0867 51.1133 44.74 50.86 45.42C50.62 46.0867 50.3333 46.74 50 47.38C49.68 48.0067 49.3267 48.5733 48.94 49.08C48.3267 49.8533 47.6467 50.58 46.9 51.26C46.1533 51.9267 45.3 52.5267 44.34 53.06C43.38 53.5933 42.2867 54.0533 41.06 54.44L39.7 52.94C41.0067 52.6067 42.1333 52.2067 43.08 51.74C44.04 51.26 44.88 50.7133 45.6 50.1C46.32 49.4867 46.9533 48.8267 47.5 48.12C47.98 47.52 48.3933 46.8333 48.74 46.06C49.1 45.2867 49.3933 44.5133 49.62 43.74C49.86 42.9533 50.0267 42.24 50.12 41.6C49.9333 41.6 49.58 41.6 49.06 41.6C48.54 41.6 47.9267 41.6 47.22 41.6C46.5133 41.6 45.7733 41.6 45 41.6C44.24 41.6 43.5067 41.6 42.8 41.6C42.0933 41.6 41.48 41.6 40.96 41.6C40.44 41.6 40.0867 41.6 39.9 41.6C39.5 41.6 39.1333 41.6067 38.8 41.62C38.4667 41.6333 38.1667 41.6467 37.9 41.66V39.9C38.0867 39.9133 38.2933 39.9333 38.52 39.96C38.7467 39.9867 38.98 40.0067 39.22 40.02C39.46 40.02 39.6867 40.02 39.9 40.02C40.06 40.02 40.3467 40.02 40.76 40.02C41.1733 40.02 41.66 40.02 42.22 40.02C42.7933 40.02 43.4 40.02 44.04 40.02C44.6933 40.02 45.3333 40.02 45.96 40.02C46.6 40.02 47.1933 40.02 47.74 40.02C48.3 40.02 48.7733 40.02 49.16 40.02C49.5467 40.02 49.8067 40.02 49.94 40.02C50.0867 40.02 50.2533 40.02 50.44 40.02C50.6267 40.0067 50.8133 39.9733 51 39.92L52.22 40.7ZM68.02 41.76C67.9933 41.9733 67.9733 42.2 67.96 42.44C67.9467 42.6667 67.94 42.8933 67.94 43.12C67.9533 43.4133 67.96 43.8133 67.96 44.32C67.9733 44.8267 67.9867 45.4067 68 46.06C68.0133 46.7 68.0267 47.3733 68.04 48.08C68.0533 48.7867 68.06 49.4933 68.06 50.2C68.0733 50.8933 68.0867 51.56 68.1 52.2C68.1133 52.8267 68.12 53.38 68.12 53.86C68.1333 54.2867 67.9933 54.62 67.7 54.86C67.42 55.1133 67.06 55.24 66.62 55.24C66.3667 55.24 66.06 55.2333 65.7 55.22C65.34 55.2067 64.9867 55.1867 64.64 55.16C64.2933 55.1467 63.9867 55.1333 63.72 55.12L63.64 53.66C64.04 53.7133 64.4733 53.76 64.94 53.8C65.4067 53.8267 65.7867 53.84 66.08 53.84C66.2667 53.84 66.4 53.7867 66.48 53.68C66.5733 53.5733 66.62 53.4333 66.62 53.26C66.62 52.86 66.6133 52.38 66.6 51.82C66.6 51.2467 66.5933 50.6333 66.58 49.98C66.58 49.3133 66.5733 48.64 66.56 47.96C66.5467 47.28 66.5333 46.6267 66.52 46C66.52 45.3733 66.5133 44.8133 66.5 44.32C66.4867 43.8133 66.4733 43.4133 66.46 43.12C66.46 42.9333 66.4467 42.72 66.42 42.48C66.3933 42.2267 66.36 41.9867 66.32 41.76H68.02ZM59.02 44.66C59.2467 44.6867 59.4867 44.7067 59.74 44.72C60.0067 44.7333 60.26 44.74 60.5 44.74C60.62 44.74 60.88 44.74 61.28 44.74C61.6933 44.74 62.1933 44.74 62.78 44.74C63.3667 44.74 63.9933 44.74 64.66 44.74C65.34 44.74 66.02 44.74 66.7 44.74C67.38 44.74 68.0067 44.74 68.58 44.74C69.1667 44.74 69.66 44.74 70.06 44.74C70.4733 44.74 70.74 44.74 70.86 44.74C71.06 44.74 71.2933 44.7333 71.56 44.72C71.84 44.6933 72.0533 44.6733 72.2 44.66V46.24C72.0267 46.2267 71.8133 46.2133 71.56 46.2C71.32 46.1867 71.1 46.18 70.9 46.18C70.7933 46.18 70.54 46.18 70.14 46.18C69.74 46.18 69.24 46.18 68.64 46.18C68.0533 46.18 67.42 46.18 66.74 46.18C66.06 46.18 65.3733 46.18 64.68 46.18C64 46.18 63.36 46.18 62.76 46.18C62.1733 46.18 61.68 46.18 61.28 46.18C60.88 46.18 60.6333 46.18 60.54 46.18C60.2733 46.18 60.0133 46.1867 59.76 46.2C59.5067 46.2133 59.26 46.2333 59.02 46.26V44.66ZM58.48 52.3C59.28 51.9133 60.0733 51.4533 60.86 50.92C61.66 50.3867 62.4067 49.82 63.1 49.22C63.7933 48.62 64.4 48.02 64.92 47.42C65.4533 46.82 65.8667 46.26 66.16 45.74H66.96L67 46.96C66.7333 47.44 66.34 47.98 65.82 48.58C65.3133 49.1667 64.72 49.7667 64.04 50.38C63.36 50.98 62.64 51.56 61.88 52.12C61.12 52.6667 60.36 53.14 59.6 53.54L58.48 52.3ZM85.48 53.58C85.52 53.42 85.5467 53.2467 85.56 53.06C85.5867 52.86 85.6 52.66 85.6 52.46C85.6 52.3267 85.6 52.0333 85.6 51.58C85.6 51.1267 85.6 50.5733 85.6 49.92C85.6 49.2533 85.6 48.5333 85.6 47.76C85.6 46.9867 85.6 46.2133 85.6 45.44C85.6 44.6533 85.6 43.92 85.6 43.24C85.6 42.56 85.6 41.9733 85.6 41.48C85.6 40.9867 85.6 40.6533 85.6 40.48C85.6 40.0933 85.5867 39.7733 85.56 39.52C85.5333 39.2533 85.5133 39.08 85.5 39H87.34C87.34 39.08 87.3267 39.2533 87.3 39.52C87.2733 39.7867 87.26 40.1067 87.26 40.48C87.26 40.6667 87.26 41 87.26 41.48C87.26 41.9467 87.26 42.52 87.26 43.2C87.26 43.8667 87.26 44.5867 87.26 45.36C87.26 46.12 87.26 46.8733 87.26 47.62C87.26 48.3667 87.26 49.06 87.26 49.7C87.26 50.3267 87.26 50.8467 87.26 51.26C87.26 51.6733 87.26 51.9267 87.26 52.02C87.8867 51.7267 88.5533 51.34 89.26 50.86C89.9667 50.38 90.6533 49.82 91.32 49.18C92 48.54 92.5933 47.8467 93.1 47.1L94.04 48.46C93.4667 49.2333 92.7933 49.9733 92.02 50.68C91.26 51.3867 90.4667 52.02 89.64 52.58C88.8133 53.14 88.0067 53.6133 87.22 54C87.06 54.0933 86.92 54.18 86.8 54.26C86.6933 54.34 86.6067 54.4067 86.54 54.46L85.48 53.58ZM76.32 53.48C77.16 52.88 77.8733 52.1533 78.46 51.3C79.0467 50.4467 79.4933 49.5333 79.8 48.56C79.9467 48.1067 80.06 47.54 80.14 46.86C80.22 46.18 80.28 45.46 80.32 44.7C80.36 43.9267 80.38 43.18 80.38 42.46C80.3933 41.7267 80.4 41.08 80.4 40.52C80.4 40.2267 80.3867 39.9667 80.36 39.74C80.3333 39.5 80.3 39.2733 80.26 39.06H82.1C82.0867 39.14 82.0733 39.26 82.06 39.42C82.0467 39.5667 82.0333 39.7333 82.02 39.92C82.0067 40.1067 82 40.3 82 40.5C82 41.06 81.9933 41.72 81.98 42.48C81.9667 43.2267 81.9333 44.0133 81.88 44.84C81.84 45.6533 81.78 46.4267 81.7 47.16C81.6333 47.8933 81.5267 48.5067 81.38 49C81.0867 50.0667 80.6267 51.0733 80 52.02C79.3867 52.9667 78.66 53.7933 77.82 54.5L76.32 53.48ZM110.3 37.88C110.473 38.1067 110.66 38.3867 110.86 38.72C111.06 39.04 111.253 39.3667 111.44 39.7C111.627 40.0333 111.793 40.34 111.94 40.62L110.86 41.1C110.66 40.7 110.407 40.2333 110.1 39.7C109.793 39.1667 109.507 38.7133 109.24 38.34L110.3 37.88ZM112.5 37.08C112.673 37.32 112.86 37.6067 113.06 37.94C113.273 38.2733 113.48 38.6067 113.68 38.94C113.88 39.26 114.047 39.5467 114.18 39.8L113.1 40.28C112.887 39.84 112.627 39.3667 112.32 38.86C112.013 38.34 111.72 37.8933 111.44 37.52L112.5 37.08ZM102.66 45.3C103.313 45.6733 103.987 46.0867 104.68 46.54C105.387 46.9933 106.093 47.4667 106.8 47.96C107.507 48.4533 108.173 48.9333 108.8 49.4C109.44 49.8667 110.007 50.3 110.5 50.7L109.32 52.08C108.867 51.6667 108.327 51.2133 107.7 50.72C107.073 50.2133 106.4 49.7067 105.68 49.2C104.973 48.68 104.267 48.1867 103.56 47.72C102.853 47.24 102.193 46.8067 101.58 46.42L102.66 45.3ZM111.82 41.66C111.727 41.7933 111.64 41.9667 111.56 42.18C111.48 42.38 111.413 42.56 111.36 42.72C111.16 43.4 110.887 44.1333 110.54 44.92C110.207 45.7067 109.8 46.5 109.32 47.3C108.853 48.1 108.327 48.86 107.74 49.58C106.833 50.7 105.707 51.7667 104.36 52.78C103.027 53.7933 101.413 54.6533 99.52 55.36L98.08 54.1C99.3333 53.7267 100.467 53.2533 101.48 52.68C102.493 52.1067 103.407 51.48 104.22 50.8C105.033 50.12 105.74 49.4267 106.34 48.72C106.86 48.0933 107.333 47.42 107.76 46.7C108.2 45.9667 108.58 45.2333 108.9 44.5C109.22 43.7667 109.453 43.0933 109.6 42.48H102.18L102.84 41.04H109.18C109.447 41.04 109.693 41.0267 109.92 41C110.147 40.96 110.34 40.9133 110.5 40.86L111.82 41.66ZM105.08 38.76C104.907 39.0267 104.74 39.3133 104.58 39.62C104.42 39.9133 104.287 40.1533 104.18 40.34C103.78 41.06 103.267 41.86 102.64 42.74C102.013 43.62 101.273 44.4933 100.42 45.36C99.5667 46.2267 98.6067 47.0267 97.54 47.76L96.2 46.74C97.3467 46.02 98.34 45.24 99.18 44.4C100.033 43.5467 100.74 42.7133 101.3 41.9C101.873 41.0867 102.313 40.3733 102.62 39.76C102.727 39.5867 102.847 39.3467 102.98 39.04C103.113 38.7333 103.207 38.4467 103.26 38.18L105.08 38.76ZM119.78 45.1V52.18H118.36V46.5H115.9V45.1H119.78ZM119.78 51.58C120.26 52.3267 120.933 52.88 121.8 53.24C122.68 53.6 123.707 53.8067 124.88 53.86C125.453 53.8733 126.147 53.8867 126.96 53.9C127.773 53.9 128.627 53.9 129.52 53.9C130.427 53.8867 131.293 53.8667 132.12 53.84C132.96 53.8 133.687 53.76 134.3 53.72C134.247 53.8267 134.187 53.9667 134.12 54.14C134.053 54.3133 133.993 54.4867 133.94 54.66C133.9 54.8467 133.867 55.0133 133.84 55.16C133.267 55.1867 132.587 55.2067 131.8 55.22C131.027 55.2333 130.213 55.24 129.36 55.24C128.52 55.2533 127.707 55.2533 126.92 55.24C126.147 55.24 125.48 55.2267 124.92 55.2C123.587 55.1467 122.453 54.9333 121.52 54.56C120.587 54.1867 119.807 53.6 119.18 52.8C118.753 53.2267 118.313 53.66 117.86 54.1C117.407 54.54 116.94 54.9867 116.46 55.44L115.68 54C116.107 53.6667 116.573 53.2867 117.08 52.86C117.587 52.4333 118.067 52.0067 118.52 51.58H119.78ZM116 38.44L117.16 37.68C117.56 37.9867 117.96 38.34 118.36 38.74C118.773 39.1267 119.147 39.52 119.48 39.92C119.813 40.3067 120.073 40.6733 120.26 41.02L119 41.86C118.813 41.5267 118.56 41.16 118.24 40.76C117.92 40.3467 117.567 39.94 117.18 39.54C116.793 39.1267 116.4 38.76 116 38.44ZM121.28 45.66H133.42V46.82H121.28V45.66ZM120.64 48.72H134.04V49.9H120.64V48.72ZM124.24 44.2H125.66V49.3H124.24V44.2ZM128.94 44.2H130.38V49.3H128.94V44.2ZM121.78 40.32H125.3V39.02H121.02V37.98H126.6V41.38H121.78V40.32ZM121.36 40.32H122.64V42.42C122.64 42.6067 122.68 42.7333 122.76 42.8C122.853 42.8533 123.06 42.88 123.38 42.88C123.447 42.88 123.58 42.88 123.78 42.88C123.98 42.88 124.2 42.88 124.44 42.88C124.68 42.88 124.9 42.88 125.1 42.88C125.313 42.88 125.467 42.88 125.56 42.88C125.8 42.88 125.953 42.8267 126.02 42.72C126.1 42.6 126.153 42.32 126.18 41.88C126.3 41.9733 126.467 42.0533 126.68 42.12C126.907 42.1867 127.113 42.2467 127.3 42.3C127.233 42.94 127.087 43.3733 126.86 43.6C126.633 43.8267 126.26 43.94 125.74 43.94C125.66 43.94 125.5 43.94 125.26 43.94C125.033 43.94 124.773 43.94 124.48 43.94C124.2 43.94 123.94 43.94 123.7 43.94C123.46 43.94 123.307 43.94 123.24 43.94C122.747 43.94 122.36 43.9 122.08 43.82C121.813 43.7267 121.627 43.5733 121.52 43.36C121.413 43.1333 121.36 42.82 121.36 42.42V40.32ZM128.36 40.32H131.82V39.02H127.56V37.98H133.14V41.38H128.36V40.32ZM127.94 40.32H129.22V42.4C129.22 42.6 129.267 42.7333 129.36 42.8C129.453 42.8533 129.667 42.88 130 42.88C130.093 42.88 130.24 42.88 130.44 42.88C130.653 42.88 130.887 42.88 131.14 42.88C131.407 42.88 131.653 42.88 131.88 42.88C132.107 42.88 132.273 42.88 132.38 42.88C132.633 42.88 132.793 42.82 132.86 42.7C132.94 42.5667 133 42.2667 133.04 41.8C133.16 41.8933 133.327 41.98 133.54 42.06C133.767 42.1267 133.967 42.1867 134.14 42.24C134.087 42.9067 133.94 43.36 133.7 43.6C133.473 43.8267 133.093 43.94 132.56 43.94C132.48 43.94 132.307 43.94 132.04 43.94C131.787 43.94 131.507 43.94 131.2 43.94C130.893 43.94 130.613 43.94 130.36 43.94C130.107 43.94 129.94 43.94 129.86 43.94C129.367 43.94 128.98 43.9 128.7 43.82C128.42 43.7267 128.22 43.5733 128.1 43.36C127.993 43.1333 127.94 42.8133 127.94 42.4V40.32ZM128.6 50.82L129.68 50.16C130.16 50.3867 130.653 50.64 131.16 50.92C131.667 51.2 132.14 51.4867 132.58 51.78C133.033 52.06 133.42 52.3267 133.74 52.58L132.26 53.22C131.847 52.8467 131.307 52.44 130.64 52C129.973 51.56 129.293 51.1667 128.6 50.82ZM124.92 50.12L126.26 50.58C125.74 51.06 125.113 51.5333 124.38 52C123.647 52.4667 122.947 52.8533 122.28 53.16C122.2 53.08 122.093 52.98 121.96 52.86C121.827 52.74 121.687 52.62 121.54 52.5C121.407 52.38 121.287 52.2867 121.18 52.22C121.86 51.9533 122.54 51.64 123.22 51.28C123.913 50.9067 124.48 50.52 124.92 50.12ZM144.12 38.34H145.6V45.18C145.6 45.98 145.56 46.84 145.48 47.76C145.413 48.68 145.273 49.6067 145.06 50.54C144.847 51.4733 144.533 52.3733 144.12 53.24C143.707 54.1067 143.16 54.8933 142.48 55.6C142.413 55.4933 142.307 55.3733 142.16 55.24C142.013 55.12 141.867 54.9933 141.72 54.86C141.573 54.74 141.447 54.6533 141.34 54.6C141.98 53.9333 142.48 53.2133 142.84 52.44C143.213 51.6533 143.487 50.8467 143.66 50.02C143.847 49.18 143.967 48.3467 144.02 47.52C144.087 46.6933 144.12 45.9067 144.12 45.16V38.34ZM149.44 45.82C149.693 47.1 150.04 48.3 150.48 49.42C150.933 50.5267 151.493 51.5067 152.16 52.36C152.84 53.2 153.64 53.8533 154.56 54.32C154.453 54.4267 154.333 54.5533 154.2 54.7C154.067 54.86 153.933 55.02 153.8 55.18C153.68 55.34 153.58 55.4933 153.5 55.64C152.513 55.0667 151.66 54.3133 150.94 53.38C150.233 52.4333 149.64 51.3467 149.16 50.12C148.693 48.88 148.313 47.5333 148.02 46.08L149.44 45.82ZM144.7 38.34H153.46V46.42H144.7V45H151.96V39.76H144.7V38.34ZM135.92 41.28H143.1V42.7H135.92V41.28ZM138.92 37.2H140.36V53.78C140.36 54.22 140.3 54.5533 140.18 54.78C140.06 55.02 139.86 55.2 139.58 55.32C139.3 55.4267 138.927 55.5 138.46 55.54C137.993 55.58 137.38 55.6 136.62 55.6C136.593 55.4133 136.533 55.18 136.44 54.9C136.347 54.6333 136.247 54.4 136.14 54.2C136.673 54.2133 137.16 54.22 137.6 54.22C138.053 54.22 138.347 54.22 138.48 54.22C138.64 54.2067 138.753 54.1667 138.82 54.1C138.887 54.0467 138.92 53.94 138.92 53.78V37.2ZM135.66 47.76C136.3 47.6267 137.02 47.4667 137.82 47.28C138.633 47.0933 139.493 46.8933 140.4 46.68C141.307 46.4667 142.207 46.2533 143.1 46.04L143.24 47.4C141.987 47.7333 140.727 48.06 139.46 48.38C138.193 48.7 137.053 48.98 136.04 49.22L135.66 47.76Z" fill="white"/>
<path d="M588.471 33.6175H182.516C170.06 33.6175 159.963 35.7677 159.963 38.42V57.63C159.963 60.2824 170.06 62.4325 182.516 62.4325H588.471C600.927 62.4325 611.025 60.2824 611.025 57.63V38.42C611.025 35.7677 600.927 33.6175 588.471 33.6175Z" fill="#505050"/>
<path d="M190.773 43H189.364C189.28 42.5947 189.134 42.2386 188.926 41.9318C188.722 41.625 188.472 41.3674 188.176 41.1591C187.884 40.947 187.561 40.7879 187.205 40.6818C186.848 40.5758 186.477 40.5227 186.091 40.5227C185.386 40.5227 184.748 40.7008 184.176 41.0568C183.608 41.4129 183.155 41.9375 182.818 42.6307C182.485 43.3239 182.318 44.1742 182.318 45.1818C182.318 46.1894 182.485 47.0398 182.818 47.733C183.155 48.4261 183.608 48.9508 184.176 49.3068C184.748 49.6629 185.386 49.8409 186.091 49.8409C186.477 49.8409 186.848 49.7879 187.205 49.6818C187.561 49.5758 187.884 49.4186 188.176 49.2102C188.472 48.9981 188.722 48.7386 188.926 48.4318C189.134 48.1212 189.28 47.7652 189.364 47.3636H190.773C190.667 47.9583 190.473 48.4905 190.193 48.9602C189.913 49.4299 189.564 49.8295 189.148 50.1591C188.731 50.4848 188.263 50.733 187.744 50.9034C187.229 51.0739 186.678 51.1591 186.091 51.1591C185.098 51.1591 184.216 50.9167 183.443 50.4318C182.67 49.947 182.063 49.2576 181.619 48.3636C181.176 47.4697 180.955 46.4091 180.955 45.1818C180.955 43.9545 181.176 42.8939 181.619 42C182.063 41.1061 182.67 40.4167 183.443 39.9318C184.216 39.447 185.098 39.2045 186.091 39.2045C186.678 39.2045 187.229 39.2898 187.744 39.4602C188.263 39.6307 188.731 39.8807 189.148 40.2102C189.564 40.536 189.913 40.9337 190.193 41.4034C190.473 41.8693 190.667 42.4015 190.773 43ZM193.845 49.5114C193.565 49.5114 193.324 49.411 193.124 49.2102C192.923 49.0095 192.822 48.7689 192.822 48.4886C192.822 48.2083 192.923 47.9678 193.124 47.767C193.324 47.5663 193.565 47.4659 193.845 47.4659C194.125 47.4659 194.366 47.5663 194.567 47.767C194.768 47.9678 194.868 48.2083 194.868 48.4886C194.868 48.6742 194.821 48.8447 194.726 49C194.635 49.1553 194.512 49.2803 194.357 49.375C194.205 49.4659 194.035 49.5114 193.845 49.5114ZM193.845 43.625C193.565 43.625 193.324 43.5246 193.124 43.3239C192.923 43.1231 192.822 42.8826 192.822 42.6023C192.822 42.322 192.923 42.0814 193.124 41.8807C193.324 41.6799 193.565 41.5795 193.845 41.5795C194.125 41.5795 194.366 41.6799 194.567 41.8807C194.768 42.0814 194.868 42.322 194.868 42.6023C194.868 42.7879 194.821 42.9583 194.726 43.1136C194.635 43.2689 194.512 43.3939 194.357 43.4886C194.205 43.5795 194.035 43.625 193.845 43.625ZM200.161 52.75L196.411 38.8182H197.638L201.388 52.75H200.161ZM209.159 44.2273L207.955 44.5682C207.879 44.3674 207.767 44.1723 207.619 43.983C207.475 43.7898 207.278 43.6307 207.028 43.5057C206.778 43.3807 206.458 43.3182 206.068 43.3182C205.534 43.3182 205.089 43.4413 204.733 43.6875C204.381 43.9299 204.205 44.2386 204.205 44.6136C204.205 44.947 204.326 45.2102 204.568 45.4034C204.811 45.5966 205.189 45.7576 205.705 45.8864L207 46.2045C207.78 46.3939 208.362 46.6837 208.744 47.0739C209.127 47.4602 209.318 47.9583 209.318 48.5682C209.318 49.0682 209.174 49.5152 208.886 49.9091C208.602 50.303 208.205 50.6136 207.693 50.8409C207.182 51.0682 206.587 51.1818 205.909 51.1818C205.019 51.1818 204.282 50.9886 203.699 50.6023C203.116 50.2159 202.746 49.6515 202.591 48.9091L203.864 48.5909C203.985 49.0606 204.214 49.4129 204.551 49.6477C204.892 49.8826 205.337 50 205.886 50C206.511 50 207.008 49.8674 207.375 49.6023C207.746 49.3333 207.932 49.0114 207.932 48.6364C207.932 48.3333 207.826 48.0795 207.614 47.875C207.402 47.6667 207.076 47.5114 206.636 47.4091L205.182 47.0682C204.383 46.8788 203.795 46.5852 203.42 46.1875C203.049 45.786 202.864 45.2841 202.864 44.6818C202.864 44.1894 203.002 43.7538 203.278 43.375C203.559 42.9962 203.939 42.6989 204.42 42.483C204.905 42.267 205.455 42.1591 206.068 42.1591C206.932 42.1591 207.61 42.3485 208.102 42.7273C208.598 43.1061 208.951 43.6061 209.159 44.2273ZM213.905 51.2045C213.352 51.2045 212.85 51.1004 212.399 50.892C211.948 50.6799 211.59 50.375 211.325 49.9773C211.06 49.5758 210.928 49.0909 210.928 48.5227C210.928 48.0227 211.026 47.6174 211.223 47.3068C211.42 46.9924 211.683 46.7462 212.013 46.5682C212.342 46.3902 212.706 46.2576 213.104 46.1705C213.505 46.0795 213.909 46.0076 214.314 45.9545C214.844 45.8864 215.274 45.8352 215.604 45.8011C215.937 45.7633 216.179 45.7008 216.331 45.6136C216.486 45.5265 216.564 45.375 216.564 45.1591V45.1136C216.564 44.553 216.411 44.1174 216.104 43.8068C215.801 43.4962 215.34 43.3409 214.723 43.3409C214.083 43.3409 213.581 43.4811 213.217 43.7614C212.854 44.0417 212.598 44.3409 212.45 44.6591L211.178 44.2045C211.405 43.6742 211.708 43.2614 212.087 42.9659C212.469 42.6667 212.886 42.4583 213.337 42.3409C213.791 42.2197 214.238 42.1591 214.678 42.1591C214.958 42.1591 215.28 42.1932 215.643 42.2614C216.011 42.3258 216.365 42.4602 216.706 42.6648C217.051 42.8693 217.337 43.178 217.564 43.5909C217.791 44.0038 217.905 44.5568 217.905 45.25V51H216.564V49.8182H216.496C216.405 50.0076 216.253 50.2102 216.041 50.4261C215.829 50.642 215.547 50.8258 215.195 50.9773C214.842 51.1288 214.412 51.2045 213.905 51.2045ZM214.109 50C214.64 50 215.087 49.8958 215.45 49.6875C215.818 49.4792 216.094 49.2102 216.28 48.8807C216.469 48.5511 216.564 48.2045 216.564 47.8409V46.6136C216.507 46.6818 216.382 46.7443 216.189 46.8011C216 46.8542 215.78 46.9015 215.53 46.9432C215.284 46.9811 215.043 47.0152 214.808 47.0455C214.577 47.072 214.39 47.0947 214.246 47.1136C213.897 47.1591 213.571 47.233 213.268 47.3352C212.969 47.4337 212.727 47.5833 212.541 47.7841C212.359 47.9811 212.268 48.25 212.268 48.5909C212.268 49.0568 212.441 49.4091 212.786 49.6477C213.134 49.8826 213.575 50 214.109 50ZM220.352 51V42.2727H221.648V43.6364H221.761C221.943 43.1705 222.237 42.8087 222.642 42.5511C223.047 42.2898 223.534 42.1591 224.102 42.1591C224.678 42.1591 225.157 42.2898 225.54 42.5511C225.926 42.8087 226.227 43.1705 226.443 43.6364H226.534C226.758 43.1856 227.093 42.8277 227.54 42.5625C227.987 42.2936 228.523 42.1591 229.148 42.1591C229.928 42.1591 230.566 42.4034 231.062 42.892C231.559 43.3769 231.807 44.1326 231.807 45.1591V51H230.466V45.1591C230.466 44.5152 230.29 44.0549 229.938 43.7784C229.585 43.5019 229.17 43.3636 228.693 43.3636C228.08 43.3636 227.604 43.5492 227.267 43.9205C226.93 44.2879 226.761 44.7538 226.761 45.3182V51H225.398V45.0227C225.398 44.5265 225.237 44.1269 224.915 43.8239C224.593 43.517 224.178 43.3636 223.67 43.3636C223.322 43.3636 222.996 43.4564 222.693 43.642C222.394 43.8277 222.152 44.0852 221.966 44.4148C221.784 44.7405 221.693 45.1174 221.693 45.5455V51H220.352ZM234.259 54.2727V42.2727H235.554V43.6591H235.713C235.812 43.5076 235.948 43.3144 236.122 43.0795C236.3 42.8409 236.554 42.6288 236.884 42.4432C237.217 42.2538 237.668 42.1591 238.236 42.1591C238.971 42.1591 239.618 42.3428 240.179 42.7102C240.74 43.0777 241.177 43.5985 241.491 44.2727C241.806 44.947 241.963 45.7424 241.963 46.6591C241.963 47.5833 241.806 48.3845 241.491 49.0625C241.177 49.7367 240.741 50.2595 240.185 50.6307C239.628 50.9981 238.986 51.1818 238.259 51.1818C237.698 51.1818 237.249 51.089 236.912 50.9034C236.575 50.714 236.315 50.5 236.134 50.2614C235.952 50.0189 235.812 49.8182 235.713 49.6591H235.599V54.2727H234.259ZM235.577 46.6364C235.577 47.2955 235.673 47.8769 235.866 48.3807C236.06 48.8807 236.342 49.2727 236.713 49.5568C237.084 49.8371 237.539 49.9773 238.077 49.9773C238.637 49.9773 239.105 49.8295 239.48 49.5341C239.859 49.2348 240.143 48.8333 240.332 48.3295C240.526 47.822 240.622 47.2576 240.622 46.6364C240.622 46.0227 240.527 45.4697 240.338 44.9773C240.152 44.4811 239.87 44.089 239.491 43.8011C239.116 43.5095 238.645 43.3636 238.077 43.3636C237.531 43.3636 237.073 43.5019 236.702 43.7784C236.33 44.0511 236.05 44.4337 235.861 44.9261C235.671 45.4148 235.577 45.9848 235.577 46.6364ZM245.349 39.3636V51H244.009V39.3636H245.349ZM251.464 51.1818C250.624 51.1818 249.898 50.9962 249.288 50.625C248.682 50.25 248.214 49.7273 247.885 49.0568C247.559 48.3826 247.396 47.5985 247.396 46.7045C247.396 45.8106 247.559 45.0227 247.885 44.3409C248.214 43.6553 248.673 43.1212 249.26 42.7386C249.851 42.3523 250.54 42.1591 251.328 42.1591C251.783 42.1591 252.232 42.2348 252.675 42.3864C253.118 42.5379 253.521 42.7841 253.885 43.125C254.249 43.4621 254.538 43.9091 254.754 44.4659C254.97 45.0227 255.078 45.7083 255.078 46.5227V47.0909H248.351V45.9318H253.714C253.714 45.4394 253.616 45 253.419 44.6136C253.226 44.2273 252.949 43.9223 252.589 43.6989C252.233 43.4754 251.813 43.3636 251.328 43.3636C250.794 43.3636 250.332 43.4962 249.942 43.7614C249.555 44.0227 249.258 44.3636 249.05 44.7841C248.841 45.2045 248.737 45.6553 248.737 46.1364V46.9091C248.737 47.5682 248.851 48.1269 249.078 48.5852C249.309 49.0398 249.629 49.3864 250.038 49.625C250.447 49.8598 250.923 49.9773 251.464 49.9773C251.817 49.9773 252.135 49.928 252.419 49.8295C252.707 49.7273 252.955 49.5758 253.163 49.375C253.372 49.1705 253.533 48.9167 253.646 48.6136L254.942 48.9773C254.805 49.4167 254.576 49.803 254.254 50.1364C253.932 50.4659 253.535 50.7235 253.061 50.9091C252.588 51.0909 252.055 51.1818 251.464 51.1818ZM263.3 44.2273L262.095 44.5682C262.019 44.3674 261.908 44.1723 261.76 43.983C261.616 43.7898 261.419 43.6307 261.169 43.5057C260.919 43.3807 260.599 43.3182 260.209 43.3182C259.675 43.3182 259.23 43.4413 258.874 43.6875C258.521 43.9299 258.345 44.2386 258.345 44.6136C258.345 44.947 258.466 45.2102 258.709 45.4034C258.951 45.5966 259.33 45.7576 259.845 45.8864L261.141 46.2045C261.921 46.3939 262.502 46.6837 262.885 47.0739C263.268 47.4602 263.459 47.9583 263.459 48.5682C263.459 49.0682 263.315 49.5152 263.027 49.9091C262.743 50.303 262.345 50.6136 261.834 50.8409C261.322 51.0682 260.728 51.1818 260.05 51.1818C259.16 51.1818 258.423 50.9886 257.839 50.6023C257.256 50.2159 256.887 49.6515 256.732 48.9091L258.004 48.5909C258.125 49.0606 258.355 49.4129 258.692 49.6477C259.033 49.8826 259.478 50 260.027 50C260.652 50 261.148 49.8674 261.516 49.6023C261.887 49.3333 262.072 49.0114 262.072 48.6364C262.072 48.3333 261.966 48.0795 261.754 47.875C261.542 47.6667 261.216 47.5114 260.777 47.4091L259.322 47.0682C258.523 46.8788 257.936 46.5852 257.561 46.1875C257.19 45.786 257.004 45.2841 257.004 44.6818C257.004 44.1894 257.143 43.7538 257.419 43.375C257.699 42.9962 258.08 42.6989 258.561 42.483C259.046 42.267 259.595 42.1591 260.209 42.1591C261.072 42.1591 261.75 42.3485 262.243 42.7273C262.739 43.1061 263.091 43.6061 263.3 44.2273Z" fill="white"/>
<path d="M607.985 85H31.9997C25.3724 85 20 89.2505 20 94.4937V384.052C20 389.295 25.3724 393.546 31.9997 393.546H607.985C614.612 393.546 619.984 389.295 619.984 384.052V94.4937C619.984 89.2505 614.612 85 607.985 85Z" fill="#282828" stroke="#444444" stroke-width="2"/>
<path d="M49.498 98.03C49.438 98.162 49.384 98.3 49.336 98.444C49.3 98.588 49.264 98.75 49.228 98.93C49.132 99.41 49.006 99.938 48.85 100.514C48.694 101.078 48.502 101.666 48.274 102.278C48.058 102.878 47.8 103.466 47.5 104.042C47.212 104.606 46.894 105.116 46.546 105.572C45.994 106.268 45.382 106.922 44.71 107.534C44.038 108.134 43.27 108.674 42.406 109.154C41.542 109.634 40.558 110.048 39.454 110.396L38.23 109.046C39.406 108.746 40.42 108.386 41.272 107.966C42.136 107.534 42.892 107.042 43.54 106.49C44.188 105.938 44.758 105.344 45.25 104.708C45.682 104.168 46.054 103.55 46.366 102.854C46.69 102.158 46.954 101.462 47.158 100.766C47.374 100.058 47.524 99.416 47.608 98.84C47.44 98.84 47.122 98.84 46.654 98.84C46.186 98.84 45.634 98.84 44.998 98.84C44.362 98.84 43.696 98.84 43 98.84C42.316 98.84 41.656 98.84 41.02 98.84C40.384 98.84 39.832 98.84 39.364 98.84C38.896 98.84 38.578 98.84 38.41 98.84C38.05 98.84 37.72 98.846 37.42 98.858C37.12 98.87 36.85 98.882 36.61 98.894V97.31C36.778 97.322 36.964 97.34 37.168 97.364C37.372 97.388 37.582 97.406 37.798 97.418C38.014 97.418 38.218 97.418 38.41 97.418C38.554 97.418 38.812 97.418 39.184 97.418C39.556 97.418 39.994 97.418 40.498 97.418C41.014 97.418 41.56 97.418 42.136 97.418C42.724 97.418 43.3 97.418 43.864 97.418C44.44 97.418 44.974 97.418 45.466 97.418C45.97 97.418 46.396 97.418 46.744 97.418C47.092 97.418 47.326 97.418 47.446 97.418C47.578 97.418 47.728 97.418 47.896 97.418C48.064 97.406 48.232 97.376 48.4 97.328L49.498 98.03ZM63.718 98.984C63.694 99.176 63.676 99.38 63.664 99.596C63.652 99.8 63.646 100.004 63.646 100.208C63.658 100.472 63.664 100.832 63.664 101.288C63.676 101.744 63.688 102.266 63.7 102.854C63.712 103.43 63.724 104.036 63.736 104.672C63.748 105.308 63.754 105.944 63.754 106.58C63.766 107.204 63.778 107.804 63.79 108.38C63.802 108.944 63.808 109.442 63.808 109.874C63.82 110.258 63.694 110.558 63.43 110.774C63.178 111.002 62.854 111.116 62.458 111.116C62.23 111.116 61.954 111.11 61.63 111.098C61.306 111.086 60.988 111.068 60.676 111.044C60.364 111.032 60.088 111.02 59.848 111.008L59.776 109.694C60.136 109.742 60.526 109.784 60.946 109.82C61.366 109.844 61.708 109.856 61.972 109.856C62.14 109.856 62.26 109.808 62.332 109.712C62.416 109.616 62.458 109.49 62.458 109.334C62.458 108.974 62.452 108.542 62.44 108.038C62.44 107.522 62.434 106.97 62.422 106.382C62.422 105.782 62.416 105.176 62.404 104.564C62.392 103.952 62.38 103.364 62.368 102.8C62.368 102.236 62.362 101.732 62.35 101.288C62.338 100.832 62.326 100.472 62.314 100.208C62.314 100.04 62.302 99.848 62.278 99.632C62.254 99.404 62.224 99.188 62.188 98.984H63.718ZM55.618 101.594C55.822 101.618 56.038 101.636 56.266 101.648C56.506 101.66 56.734 101.666 56.95 101.666C57.058 101.666 57.292 101.666 57.652 101.666C58.024 101.666 58.474 101.666 59.002 101.666C59.53 101.666 60.094 101.666 60.694 101.666C61.306 101.666 61.918 101.666 62.53 101.666C63.142 101.666 63.706 101.666 64.222 101.666C64.75 101.666 65.194 101.666 65.554 101.666C65.926 101.666 66.166 101.666 66.274 101.666C66.454 101.666 66.664 101.66 66.904 101.648C67.156 101.624 67.348 101.606 67.48 101.594V103.016C67.324 103.004 67.132 102.992 66.904 102.98C66.688 102.968 66.49 102.962 66.31 102.962C66.214 102.962 65.986 102.962 65.626 102.962C65.266 102.962 64.816 102.962 64.276 102.962C63.748 102.962 63.178 102.962 62.566 102.962C61.954 102.962 61.336 102.962 60.712 102.962C60.1 102.962 59.524 102.962 58.984 102.962C58.456 102.962 58.012 102.962 57.652 102.962C57.292 102.962 57.07 102.962 56.986 102.962C56.746 102.962 56.512 102.968 56.284 102.98C56.056 102.992 55.834 103.01 55.618 103.034V101.594ZM55.132 108.47C55.852 108.122 56.566 107.708 57.274 107.228C57.994 106.748 58.666 106.238 59.29 105.698C59.914 105.158 60.46 104.618 60.928 104.078C61.408 103.538 61.78 103.034 62.044 102.566H62.764L62.8 103.664C62.56 104.096 62.206 104.582 61.738 105.122C61.282 105.65 60.748 106.19 60.136 106.742C59.524 107.282 58.876 107.804 58.192 108.308C57.508 108.8 56.824 109.226 56.14 109.586L55.132 108.47ZM79.432 109.622C79.468 109.478 79.492 109.322 79.504 109.154C79.528 108.974 79.54 108.794 79.54 108.614C79.54 108.494 79.54 108.23 79.54 107.822C79.54 107.414 79.54 106.916 79.54 106.328C79.54 105.728 79.54 105.08 79.54 104.384C79.54 103.688 79.54 102.992 79.54 102.296C79.54 101.588 79.54 100.928 79.54 100.316C79.54 99.704 79.54 99.176 79.54 98.732C79.54 98.288 79.54 97.988 79.54 97.832C79.54 97.484 79.528 97.196 79.504 96.968C79.48 96.728 79.462 96.572 79.45 96.5H81.106C81.106 96.572 81.094 96.728 81.07 96.968C81.046 97.208 81.034 97.496 81.034 97.832C81.034 98 81.034 98.3 81.034 98.732C81.034 99.152 81.034 99.668 81.034 100.28C81.034 100.88 81.034 101.528 81.034 102.224C81.034 102.908 81.034 103.586 81.034 104.258C81.034 104.93 81.034 105.554 81.034 106.13C81.034 106.694 81.034 107.162 81.034 107.534C81.034 107.906 81.034 108.134 81.034 108.218C81.598 107.954 82.198 107.606 82.834 107.174C83.47 106.742 84.088 106.238 84.688 105.662C85.3 105.086 85.834 104.462 86.29 103.79L87.136 105.014C86.62 105.71 86.014 106.376 85.318 107.012C84.634 107.648 83.92 108.218 83.176 108.722C82.432 109.226 81.706 109.652 80.998 110C80.854 110.084 80.728 110.162 80.62 110.234C80.524 110.306 80.446 110.366 80.386 110.414L79.432 109.622ZM71.188 109.532C71.944 108.992 72.586 108.338 73.114 107.57C73.642 106.802 74.044 105.98 74.32 105.104C74.452 104.696 74.554 104.186 74.626 103.574C74.698 102.962 74.752 102.314 74.788 101.63C74.824 100.934 74.842 100.262 74.842 99.614C74.854 98.954 74.86 98.372 74.86 97.868C74.86 97.604 74.848 97.37 74.824 97.166C74.8 96.95 74.77 96.746 74.734 96.554H76.39C76.378 96.626 76.366 96.734 76.354 96.878C76.342 97.01 76.33 97.16 76.318 97.328C76.306 97.496 76.3 97.67 76.3 97.85C76.3 98.354 76.294 98.948 76.282 99.632C76.27 100.304 76.24 101.012 76.192 101.756C76.156 102.488 76.102 103.184 76.03 103.844C75.97 104.504 75.874 105.056 75.742 105.5C75.478 106.46 75.064 107.366 74.5 108.218C73.948 109.07 73.294 109.814 72.538 110.45L71.188 109.532ZM101.77 95.492C101.926 95.696 102.094 95.948 102.274 96.248C102.454 96.536 102.628 96.83 102.796 97.13C102.964 97.43 103.114 97.706 103.246 97.958L102.274 98.39C102.094 98.03 101.866 97.61 101.59 97.13C101.314 96.65 101.056 96.242 100.816 95.906L101.77 95.492ZM103.75 94.772C103.906 94.988 104.074 95.246 104.254 95.546C104.446 95.846 104.632 96.146 104.812 96.446C104.992 96.734 105.142 96.992 105.262 97.22L104.29 97.652C104.098 97.256 103.864 96.83 103.588 96.374C103.312 95.906 103.048 95.504 102.796 95.168L103.75 94.772ZM94.894 102.17C95.482 102.506 96.088 102.878 96.712 103.286C97.348 103.694 97.984 104.12 98.62 104.564C99.256 105.008 99.856 105.44 100.42 105.86C100.996 106.28 101.506 106.67 101.95 107.03L100.888 108.272C100.48 107.9 99.994 107.492 99.43 107.048C98.866 106.592 98.26 106.136 97.612 105.68C96.976 105.212 96.34 104.768 95.704 104.348C95.068 103.916 94.474 103.526 93.922 103.178L94.894 102.17ZM103.138 98.894C103.054 99.014 102.976 99.17 102.904 99.362C102.832 99.542 102.772 99.704 102.724 99.848C102.544 100.46 102.298 101.12 101.986 101.828C101.686 102.536 101.32 103.25 100.888 103.97C100.468 104.69 99.994 105.374 99.466 106.022C98.65 107.03 97.636 107.99 96.424 108.902C95.224 109.814 93.772 110.588 92.068 111.224L90.772 110.09C91.9 109.754 92.92 109.328 93.832 108.812C94.744 108.296 95.566 107.732 96.298 107.12C97.03 106.508 97.666 105.884 98.206 105.248C98.674 104.684 99.1 104.078 99.484 103.43C99.88 102.77 100.222 102.11 100.51 101.45C100.798 100.79 101.008 100.184 101.14 99.632H94.462L95.056 98.336H100.762C101.002 98.336 101.224 98.324 101.428 98.3C101.632 98.264 101.806 98.222 101.95 98.174L103.138 98.894ZM97.072 96.284C96.916 96.524 96.766 96.782 96.622 97.058C96.478 97.322 96.358 97.538 96.262 97.706C95.902 98.354 95.44 99.074 94.876 99.866C94.312 100.658 93.646 101.444 92.878 102.224C92.11 103.004 91.246 103.724 90.286 104.384L89.08 103.466C90.112 102.818 91.006 102.116 91.762 101.36C92.53 100.592 93.166 99.842 93.67 99.11C94.186 98.378 94.582 97.736 94.858 97.184C94.954 97.028 95.062 96.812 95.182 96.536C95.302 96.26 95.386 96.002 95.434 95.762L97.072 96.284ZM114.136 102.188L115.144 101.45C115.6 101.846 116.08 102.278 116.584 102.746C117.088 103.202 117.58 103.67 118.06 104.15C118.54 104.618 118.99 105.074 119.41 105.518C119.83 105.95 120.184 106.34 120.472 106.688L119.356 107.57C119.08 107.21 118.738 106.808 118.33 106.364C117.934 105.92 117.496 105.452 117.016 104.96C116.548 104.468 116.062 103.988 115.558 103.52C115.066 103.04 114.592 102.596 114.136 102.188ZM114.334 94.88H115.702V98.408C115.702 98.984 115.666 99.59 115.594 100.226C115.534 100.862 115.408 101.51 115.216 102.17C115.036 102.83 114.754 103.49 114.37 104.15C113.998 104.81 113.5 105.446 112.876 106.058C112.252 106.67 111.478 107.252 110.554 107.804C110.494 107.696 110.404 107.582 110.284 107.462C110.176 107.342 110.056 107.216 109.924 107.084C109.804 106.952 109.69 106.85 109.582 106.778C110.482 106.298 111.226 105.782 111.814 105.23C112.402 104.666 112.864 104.09 113.2 103.502C113.548 102.902 113.8 102.308 113.956 101.72C114.112 101.132 114.214 100.556 114.262 99.992C114.31 99.428 114.334 98.894 114.334 98.39V94.88ZM107.782 97.958H121.534V99.29H109.114V111.476H107.782V97.958ZM120.922 97.958H122.254V109.658C122.254 110.102 122.194 110.438 122.074 110.666C121.954 110.906 121.744 111.086 121.444 111.206C121.12 111.314 120.676 111.374 120.112 111.386C119.56 111.41 118.882 111.422 118.078 111.422C118.054 111.29 118.018 111.14 117.97 110.972C117.922 110.816 117.868 110.654 117.808 110.486C117.748 110.318 117.682 110.174 117.61 110.054C118.042 110.066 118.45 110.072 118.834 110.072C119.23 110.084 119.572 110.09 119.86 110.09C120.16 110.09 120.364 110.09 120.472 110.09C120.652 110.078 120.772 110.042 120.832 109.982C120.892 109.91 120.922 109.796 120.922 109.64V97.958ZM129.958 98.624L131.272 99.056C130.876 99.572 130.42 100.082 129.904 100.586C129.388 101.078 128.842 101.54 128.266 101.972C127.702 102.392 127.144 102.764 126.592 103.088C126.532 102.992 126.442 102.878 126.322 102.746C126.214 102.614 126.094 102.482 125.962 102.35C125.842 102.218 125.728 102.11 125.62 102.026C126.448 101.618 127.246 101.114 128.014 100.514C128.794 99.914 129.442 99.284 129.958 98.624ZM134.566 99.398L135.484 98.606C136.036 98.93 136.612 99.302 137.212 99.722C137.812 100.13 138.376 100.544 138.904 100.964C139.444 101.372 139.882 101.744 140.218 102.08L139.228 102.998C138.904 102.662 138.484 102.278 137.968 101.846C137.452 101.414 136.894 100.982 136.294 100.55C135.706 100.118 135.13 99.734 134.566 99.398ZM133.018 101.882C132.526 102.53 131.89 103.202 131.11 103.898C130.33 104.582 129.466 105.248 128.518 105.896C127.57 106.532 126.592 107.096 125.584 107.588C125.536 107.468 125.464 107.342 125.368 107.21C125.284 107.078 125.194 106.946 125.098 106.814C125.002 106.67 124.906 106.55 124.81 106.454C125.83 105.998 126.82 105.446 127.78 104.798C128.74 104.15 129.61 103.466 130.39 102.746C131.17 102.014 131.794 101.312 132.262 100.64H133.63C134.11 101.204 134.65 101.762 135.25 102.314C135.862 102.866 136.51 103.388 137.194 103.88C137.878 104.36 138.574 104.798 139.282 105.194C140.002 105.59 140.71 105.926 141.406 106.202C141.262 106.37 141.112 106.568 140.956 106.796C140.8 107.024 140.662 107.234 140.542 107.426C139.882 107.102 139.192 106.73 138.472 106.31C137.764 105.878 137.074 105.416 136.402 104.924C135.73 104.432 135.1 103.928 134.512 103.412C133.936 102.896 133.438 102.386 133.018 101.882ZM128.05 105.41H138.004V111.386H136.636V106.616H129.346V111.458H128.05V105.41ZM128.662 109.64H137.356V110.846H128.662V109.64ZM132.262 94.88H133.648V97.22H132.262V94.88ZM125.494 96.536H140.524V99.812H139.138V97.778H126.808V99.812H125.494V96.536Z" fill="white"/>
<path d="M607.544 407H31.0111C24.3775 407 19 411.904 19 417.953V642.488C19 648.537 24.3775 653.441 31.0111 653.441H607.544C614.177 653.441 619.555 648.537 619.555 642.488V417.953C619.555 411.904 614.177 407 607.544 407Z" fill="#282828" stroke="#444444" stroke-width="2"/>
<path d="M46.96 416.738C46.96 417.938 46.882 419 46.726 419.924C46.582 420.848 46.318 421.67 45.934 422.39C45.55 423.11 45.022 423.752 44.35 424.316C43.69 424.868 42.844 425.372 41.812 425.828L40.606 424.694C41.434 424.37 42.154 424.016 42.766 423.632C43.378 423.248 43.888 422.768 44.296 422.192C44.704 421.616 45.01 420.896 45.214 420.032C45.418 419.168 45.52 418.106 45.52 416.846V412.472C45.52 412.112 45.508 411.8 45.484 411.536C45.46 411.26 45.442 411.08 45.43 410.996H47.05C47.038 411.08 47.02 411.26 46.996 411.536C46.972 411.8 46.96 412.112 46.96 412.472V416.738ZM40.48 411.104C40.468 411.188 40.45 411.35 40.426 411.59C40.402 411.83 40.39 412.106 40.39 412.418V419.006C40.39 419.222 40.396 419.45 40.408 419.69C40.42 419.918 40.432 420.122 40.444 420.302C40.456 420.47 40.462 420.584 40.462 420.644H38.878C38.878 420.584 38.884 420.47 38.896 420.302C38.908 420.134 38.92 419.936 38.932 419.708C38.944 419.468 38.95 419.234 38.95 419.006V412.418C38.95 412.214 38.944 411.998 38.932 411.77C38.92 411.53 38.902 411.308 38.878 411.104H40.48ZM35.206 414.596C35.266 414.608 35.386 414.626 35.566 414.65C35.758 414.662 35.986 414.68 36.25 414.704C36.514 414.716 36.766 414.722 37.006 414.722H48.94C49.336 414.722 49.678 414.71 49.966 414.686C50.254 414.662 50.464 414.644 50.596 414.632V416.162C50.488 416.15 50.284 416.138 49.984 416.126C49.684 416.114 49.336 416.108 48.94 416.108H37.006C36.754 416.108 36.502 416.114 36.25 416.126C35.998 416.126 35.776 416.132 35.584 416.144C35.404 416.156 35.278 416.162 35.206 416.162V414.596ZM61.0444 411.572C60.9604 411.8 60.8644 412.04 60.7564 412.292C60.6604 412.544 60.5524 412.862 60.4324 413.246C60.3244 413.546 60.1864 413.966 60.0184 414.506C59.8504 415.046 59.6584 415.646 59.4424 416.306C59.2384 416.954 59.0164 417.626 58.7764 418.322C58.5484 419.018 58.3204 419.696 58.0924 420.356C57.8644 421.016 57.6544 421.61 57.4624 422.138C57.2824 422.654 57.1264 423.068 56.9944 423.38L55.3564 423.434C55.5124 423.074 55.6924 422.618 55.8964 422.066C56.1004 421.514 56.3224 420.896 56.5624 420.212C56.8024 419.528 57.0364 418.832 57.2644 418.124C57.5044 417.404 57.7324 416.708 57.9484 416.036C58.1644 415.364 58.3504 414.758 58.5064 414.218C58.6744 413.678 58.8064 413.252 58.9024 412.94C59.0104 412.52 59.0884 412.19 59.1364 411.95C59.1844 411.698 59.2204 411.452 59.2444 411.212L61.0444 411.572ZM64.4644 417.602C64.7884 418.07 65.1364 418.622 65.5084 419.258C65.8924 419.894 66.2704 420.566 66.6424 421.274C67.0264 421.97 67.3744 422.636 67.6864 423.272C68.0104 423.908 68.2684 424.46 68.4604 424.928L66.9484 425.612C66.7684 425.12 66.5284 424.544 66.2284 423.884C65.9284 423.212 65.5984 422.522 65.2384 421.814C64.8904 421.106 64.5304 420.434 64.1584 419.798C63.7864 419.162 63.4384 418.634 63.1144 418.214L64.4644 417.602ZM54.6544 423.002C55.0864 422.978 55.6084 422.942 56.2204 422.894C56.8444 422.834 57.5164 422.774 58.2364 422.714C58.9564 422.642 59.6884 422.564 60.4324 422.48C61.1884 422.396 61.9204 422.318 62.6284 422.246C63.3364 422.162 63.9844 422.084 64.5724 422.012C65.1604 421.928 65.6464 421.862 66.0304 421.814L66.4264 423.2C66.0184 423.26 65.5024 423.326 64.8784 423.398C64.2544 423.47 63.5764 423.548 62.8444 423.632C62.1244 423.704 61.3744 423.788 60.5944 423.884C59.8264 423.968 59.0764 424.052 58.3444 424.136C57.6124 424.22 56.9344 424.292 56.3104 424.352C55.6864 424.412 55.1644 424.46 54.7444 424.496C54.5164 424.52 54.2764 424.55 54.0244 424.586C53.7724 424.622 53.5144 424.658 53.2504 424.694L52.9804 423.02C53.2564 423.032 53.5384 423.038 53.8264 423.038C54.1264 423.026 54.4024 423.014 54.6544 423.002ZM79.6024 410.582C79.5664 410.786 79.5364 411.038 79.5124 411.338C79.5004 411.638 79.4944 411.914 79.4944 412.166C79.4944 412.322 79.4944 412.52 79.4944 412.76C79.4944 412.988 79.4944 413.21 79.4944 413.426C79.4944 413.642 79.4944 413.816 79.4944 413.948H78.0364C78.0364 413.816 78.0364 413.642 78.0364 413.426C78.0364 413.21 78.0364 412.988 78.0364 412.76C78.0364 412.532 78.0364 412.334 78.0364 412.166C78.0364 411.914 78.0304 411.638 78.0184 411.338C78.0064 411.038 77.9824 410.786 77.9464 410.582H79.6024ZM84.5344 414.11C84.3784 414.278 84.2044 414.458 84.0124 414.65C83.8324 414.842 83.6704 415.022 83.5264 415.19C83.2264 415.562 82.8544 415.97 82.4104 416.414C81.9784 416.858 81.4984 417.308 80.9704 417.764C80.4544 418.208 79.9084 418.628 79.3324 419.024C78.6844 419.48 77.9824 419.9 77.2264 420.284C76.4824 420.668 75.6724 421.034 74.7964 421.382C73.9204 421.718 72.9664 422.042 71.9344 422.354L71.0704 421.022C72.7744 420.614 74.2084 420.134 75.3724 419.582C76.5484 419.03 77.5444 418.49 78.3604 417.962C78.9004 417.614 79.4044 417.242 79.8724 416.846C80.3524 416.438 80.7784 416.048 81.1504 415.676C81.5344 415.292 81.8224 414.956 82.0144 414.668C81.8824 414.668 81.6244 414.668 81.2404 414.668C80.8564 414.668 80.4064 414.668 79.8904 414.668C79.3744 414.668 78.8344 414.668 78.2704 414.668C77.7064 414.668 77.1664 414.668 76.6504 414.668C76.1344 414.668 75.6844 414.668 75.3004 414.668C74.9284 414.668 74.6764 414.668 74.5444 414.668C74.3404 414.668 74.0944 414.674 73.8064 414.686C73.5304 414.686 73.2604 414.692 72.9964 414.704C72.7444 414.716 72.5224 414.728 72.3304 414.74V413.228C72.6304 413.252 72.9904 413.276 73.4104 413.3C73.8424 413.312 74.2084 413.318 74.5084 413.318C74.6524 413.318 74.9164 413.318 75.3004 413.318C75.6964 413.318 76.1584 413.318 76.6864 413.318C77.2264 413.318 77.7904 413.318 78.3784 413.318C78.9784 413.318 79.5544 413.318 80.1064 413.318C80.6704 413.318 81.1564 413.318 81.5644 413.318C81.9844 413.318 82.2844 413.318 82.4644 413.318C82.6684 413.318 82.8724 413.312 83.0764 413.3C83.2804 413.276 83.4544 413.246 83.5984 413.21L84.5344 414.11ZM79.4584 418.268C79.4584 418.628 79.4584 419.048 79.4584 419.528C79.4584 419.996 79.4524 420.494 79.4404 421.022C79.4404 421.538 79.4404 422.036 79.4404 422.516C79.4404 422.996 79.4404 423.416 79.4404 423.776C79.4404 423.98 79.4464 424.202 79.4584 424.442C79.4704 424.682 79.4824 424.916 79.4944 425.144C79.5064 425.372 79.5184 425.576 79.5304 425.756H77.8924C77.9164 425.588 77.9344 425.39 77.9464 425.162C77.9704 424.934 77.9824 424.7 77.9824 424.46C77.9944 424.208 78.0004 423.98 78.0004 423.776C78.0004 423.428 78.0004 423.038 78.0004 422.606C78.0004 422.162 78.0004 421.712 78.0004 421.256C78.0124 420.788 78.0184 420.35 78.0184 419.942C78.0184 419.522 78.0184 419.174 78.0184 418.898L79.4584 418.268ZM85.3804 422.588C84.8644 422.204 84.3784 421.862 83.9224 421.562C83.4784 421.25 83.0284 420.956 82.5724 420.68C82.1164 420.404 81.6064 420.116 81.0424 419.816L81.9784 418.754C82.5424 419.054 83.0464 419.33 83.4904 419.582C83.9464 419.834 84.3904 420.098 84.8224 420.374C85.2664 420.65 85.7644 420.98 86.3164 421.364L85.3804 422.588ZM89.1964 418.502C90.7564 418.082 92.2084 417.572 93.5524 416.972C94.8964 416.372 96.0664 415.76 97.0624 415.136C97.6864 414.74 98.2924 414.314 98.8804 413.858C99.4804 413.39 100.044 412.904 100.572 412.4C101.1 411.896 101.568 411.398 101.976 410.906L103.182 412.022C102.678 412.562 102.132 413.09 101.544 413.606C100.956 414.122 100.332 414.62 99.6724 415.1C99.0244 415.568 98.3464 416.024 97.6384 416.468C96.9784 416.864 96.2344 417.272 95.4064 417.692C94.5784 418.112 93.6964 418.508 92.7604 418.88C91.8244 419.252 90.8764 419.594 89.9164 419.906L89.1964 418.502ZM96.7744 415.892L98.3224 415.424V423.632C98.3224 423.86 98.3224 424.1 98.3224 424.352C98.3344 424.604 98.3464 424.838 98.3584 425.054C98.3824 425.27 98.4064 425.438 98.4304 425.558H96.6664C96.6784 425.438 96.6904 425.27 96.7024 425.054C96.7264 424.838 96.7444 424.604 96.7564 424.352C96.7684 424.1 96.7744 423.86 96.7744 423.632V415.892ZM115.08 424.622C115.116 424.478 115.14 424.322 115.152 424.154C115.176 423.974 115.188 423.794 115.188 423.614C115.188 423.494 115.188 423.23 115.188 422.822C115.188 422.414 115.188 421.916 115.188 421.328C115.188 420.728 115.188 420.08 115.188 419.384C115.188 418.688 115.188 417.992 115.188 417.296C115.188 416.588 115.188 415.928 115.188 415.316C115.188 414.704 115.188 414.176 115.188 413.732C115.188 413.288 115.188 412.988 115.188 412.832C115.188 412.484 115.176 412.196 115.152 411.968C115.128 411.728 115.11 411.572 115.098 411.5H116.754C116.754 411.572 116.742 411.728 116.718 411.968C116.694 412.208 116.682 412.496 116.682 412.832C116.682 413 116.682 413.3 116.682 413.732C116.682 414.152 116.682 414.668 116.682 415.28C116.682 415.88 116.682 416.528 116.682 417.224C116.682 417.908 116.682 418.586 116.682 419.258C116.682 419.93 116.682 420.554 116.682 421.13C116.682 421.694 116.682 422.162 116.682 422.534C116.682 422.906 116.682 423.134 116.682 423.218C117.246 422.954 117.846 422.606 118.482 422.174C119.118 421.742 119.736 421.238 120.336 420.662C120.948 420.086 121.482 419.462 121.938 418.79L122.784 420.014C122.268 420.71 121.662 421.376 120.966 422.012C120.282 422.648 119.568 423.218 118.824 423.722C118.08 424.226 117.354 424.652 116.646 425C116.502 425.084 116.376 425.162 116.268 425.234C116.172 425.306 116.094 425.366 116.034 425.414L115.08 424.622ZM106.836 424.532C107.592 423.992 108.234 423.338 108.762 422.57C109.29 421.802 109.692 420.98 109.968 420.104C110.1 419.696 110.202 419.186 110.274 418.574C110.346 417.962 110.4 417.314 110.436 416.63C110.472 415.934 110.49 415.262 110.49 414.614C110.502 413.954 110.508 413.372 110.508 412.868C110.508 412.604 110.496 412.37 110.472 412.166C110.448 411.95 110.418 411.746 110.382 411.554H112.038C112.026 411.626 112.014 411.734 112.002 411.878C111.99 412.01 111.978 412.16 111.966 412.328C111.954 412.496 111.948 412.67 111.948 412.85C111.948 413.354 111.942 413.948 111.93 414.632C111.918 415.304 111.888 416.012 111.84 416.756C111.804 417.488 111.75 418.184 111.678 418.844C111.618 419.504 111.522 420.056 111.39 420.5C111.126 421.46 110.712 422.366 110.148 423.218C109.596 424.07 108.942 424.814 108.186 425.45L106.836 424.532Z" fill="white"/>
<path d="M607.544 666H31.0111C24.3775 666 19 673.189 19 682.056V890.784C19 899.652 24.3775 906.84 31.0111 906.84H607.544C614.177 906.84 619.555 899.652 619.555 890.784V682.056C619.555 673.189 614.177 666 607.544 666Z" fill="#282828" stroke="#444444" stroke-width="2"/>
<path d="M42.956 673.336H52.064V674.56H42.956V673.336ZM43.28 676.918H51.686V678.142H43.28V676.918ZM42.38 680.698H52.334V681.958H42.38V680.698ZM46.736 673.768H48.068V686.44H46.736V673.768ZM49.958 669.844L51.272 670.294C51.008 670.834 50.732 671.398 50.444 671.986C50.156 672.562 49.88 673.054 49.616 673.462L48.572 673.066C48.728 672.778 48.89 672.448 49.058 672.076C49.238 671.692 49.406 671.308 49.562 670.924C49.73 670.528 49.862 670.168 49.958 669.844ZM43.73 670.384L44.828 669.97C45.128 670.45 45.41 670.978 45.674 671.554C45.95 672.13 46.142 672.628 46.25 673.048L45.08 673.516C44.972 673.084 44.786 672.574 44.522 671.986C44.27 671.398 44.006 670.864 43.73 670.384ZM36.548 675.334H41.912V676.396H36.548V675.334ZM36.62 670.51H41.876V671.59H36.62V670.51ZM36.548 677.728H41.912V678.808H36.548V677.728ZM35.684 672.868H42.542V674.002H35.684V672.868ZM37.178 680.158H41.894V685.414H37.178V684.298H40.706V681.292H37.178V680.158ZM36.512 680.158H37.7V686.242H36.512V680.158ZM64.772 671.878H65.996V684.748H64.772V671.878ZM61.226 671.32H69.74V686.062H68.462V672.58H62.45V686.206H61.226V671.32ZM61.874 677.566H69.02V678.79H61.874V677.566ZM61.874 683.974H68.984V685.234H61.874V683.974ZM56.726 678.358H57.95V686.422H56.726V678.358ZM56.564 669.862L57.77 670.348C57.542 670.792 57.296 671.254 57.032 671.734C56.768 672.214 56.504 672.676 56.24 673.12C55.976 673.564 55.724 673.96 55.484 674.308L54.548 673.876C54.776 673.528 55.016 673.12 55.268 672.652C55.52 672.172 55.76 671.692 55.988 671.212C56.216 670.72 56.408 670.27 56.564 669.862ZM58.778 671.95L59.93 672.49C59.51 673.15 59.042 673.858 58.526 674.614C58.01 675.358 57.488 676.078 56.96 676.774C56.444 677.47 55.952 678.076 55.484 678.592L54.656 678.124C54.992 677.716 55.352 677.26 55.736 676.756C56.12 676.24 56.492 675.706 56.852 675.154C57.224 674.59 57.572 674.032 57.896 673.48C58.232 672.928 58.526 672.418 58.778 671.95ZM53.684 673.714L54.35 672.814C54.686 673.09 55.016 673.396 55.34 673.732C55.676 674.056 55.982 674.38 56.258 674.704C56.546 675.016 56.768 675.304 56.924 675.568L56.204 676.594C56.06 676.318 55.844 676.012 55.556 675.676C55.28 675.328 54.98 674.986 54.656 674.65C54.332 674.302 54.008 673.99 53.684 673.714ZM58.274 676.054L59.282 675.622C59.558 676.006 59.816 676.426 60.056 676.882C60.308 677.326 60.53 677.764 60.722 678.196C60.926 678.616 61.076 678.994 61.172 679.33L60.092 679.852C59.996 679.516 59.852 679.132 59.66 678.7C59.468 678.256 59.252 677.806 59.012 677.35C58.784 676.894 58.538 676.462 58.274 676.054ZM53.54 677.836C54.368 677.788 55.358 677.728 56.51 677.656C57.662 677.572 58.838 677.488 60.038 677.404V678.502C58.922 678.598 57.812 678.7 56.708 678.808C55.604 678.904 54.62 678.988 53.756 679.06L53.54 677.836ZM58.598 680.428L59.624 680.086C59.888 680.638 60.134 681.244 60.362 681.904C60.602 682.552 60.77 683.11 60.866 683.578L59.75 683.956C59.702 683.632 59.612 683.272 59.48 682.876C59.36 682.468 59.222 682.054 59.066 681.634C58.922 681.202 58.766 680.8 58.598 680.428ZM54.674 680.158L55.826 680.356C55.718 681.208 55.556 682.048 55.34 682.876C55.136 683.692 54.89 684.388 54.602 684.964C54.53 684.916 54.428 684.862 54.296 684.802C54.164 684.73 54.026 684.664 53.882 684.604C53.75 684.532 53.636 684.478 53.54 684.442C53.828 683.89 54.062 683.236 54.242 682.48C54.422 681.712 54.566 680.938 54.674 680.158ZM78.686 680.194H85.868V681.22H78.686V680.194ZM77.012 671.284H87.704V672.328H77.012V671.284ZM77.444 673.48H87.254V674.47H77.444V673.48ZM76.472 675.712H88.244V676.756H76.472V675.712ZM78.704 682.588H85.922V683.614H78.704V682.588ZM77.768 677.8H85.85V678.844H79.028V686.422H77.768V677.8ZM85.544 677.8H86.822V684.928C86.822 685.264 86.774 685.528 86.678 685.72C86.594 685.912 86.426 686.056 86.174 686.152C85.922 686.26 85.586 686.32 85.166 686.332C84.746 686.356 84.218 686.368 83.582 686.368C83.558 686.2 83.504 686.002 83.42 685.774C83.348 685.558 83.27 685.366 83.186 685.198C83.642 685.21 84.062 685.216 84.446 685.216C84.842 685.228 85.1 685.228 85.22 685.216C85.436 685.204 85.544 685.102 85.544 684.91V677.8ZM81.62 669.88H82.952V676.036H81.62V669.88ZM73.736 669.88H74.96V686.422H73.736V669.88ZM72.314 673.354L73.322 673.48C73.298 673.948 73.25 674.476 73.178 675.064C73.118 675.64 73.034 676.216 72.926 676.792C72.818 677.368 72.692 677.884 72.548 678.34L71.486 677.98C71.63 677.572 71.756 677.098 71.864 676.558C71.972 676.018 72.062 675.466 72.134 674.902C72.218 674.338 72.278 673.822 72.314 673.354ZM75.122 672.868L76.022 672.508C76.226 672.916 76.424 673.366 76.616 673.858C76.808 674.338 76.946 674.74 77.03 675.064L76.076 675.532C75.992 675.184 75.86 674.758 75.68 674.254C75.5 673.75 75.314 673.288 75.122 672.868ZM99.008 676.828H104.912V677.944H99.008V676.828ZM98.342 670.708H104.768V671.932H99.584V686.458H98.342V670.708ZM104.12 670.708H105.38V674.182C105.38 674.518 105.332 674.782 105.236 674.974C105.152 675.166 104.972 675.316 104.696 675.424C104.42 675.52 104.048 675.58 103.58 675.604C103.124 675.616 102.542 675.622 101.834 675.622C101.81 675.442 101.756 675.244 101.672 675.028C101.6 674.8 101.516 674.602 101.42 674.434C101.804 674.446 102.152 674.458 102.464 674.47C102.788 674.47 103.064 674.47 103.292 674.47C103.52 674.47 103.676 674.464 103.76 674.452C103.916 674.44 104.012 674.416 104.048 674.38C104.096 674.344 104.12 674.278 104.12 674.182V670.708ZM100.772 677.566C101.096 678.694 101.534 679.768 102.086 680.788C102.638 681.796 103.28 682.696 104.012 683.488C104.756 684.28 105.584 684.898 106.496 685.342C106.34 685.462 106.172 685.63 105.992 685.846C105.812 686.074 105.668 686.272 105.56 686.44C104.636 685.912 103.796 685.216 103.04 684.352C102.296 683.488 101.642 682.498 101.078 681.382C100.526 680.266 100.07 679.09 99.71 677.854L100.772 677.566ZM104.498 676.828H104.732L104.966 676.774L105.812 677.08C105.572 678.376 105.212 679.618 104.732 680.806C104.264 681.994 103.67 683.074 102.95 684.046C102.242 685.006 101.408 685.816 100.448 686.476C100.34 686.32 100.196 686.152 100.016 685.972C99.848 685.804 99.686 685.666 99.53 685.558C100.442 684.958 101.234 684.214 101.906 683.326C102.578 682.426 103.13 681.442 103.562 680.374C104.006 679.306 104.318 678.226 104.498 677.134V676.828ZM90.386 671.734H97.064V672.886H90.386V671.734ZM90.188 681.562H97.298V682.732H90.188V681.562ZM89.756 674.704H97.766V675.874H89.756V674.704ZM90.008 678.43H97.532V679.6H90.008V678.43ZM93.158 669.898H94.418V675.118H93.158V669.898ZM93.158 678.934H94.418V686.404H93.158V678.934ZM95.588 675.802L96.758 676.09C96.578 676.522 96.398 676.96 96.218 677.404C96.05 677.836 95.876 678.208 95.696 678.52L94.706 678.232C94.802 678.004 94.904 677.746 95.012 677.458C95.132 677.17 95.24 676.882 95.336 676.594C95.444 676.294 95.528 676.03 95.588 675.802ZM90.998 676.09L92.024 675.82C92.24 676.204 92.426 676.624 92.582 677.08C92.738 677.536 92.834 677.92 92.87 678.232L91.79 678.556C91.754 678.232 91.658 677.842 91.502 677.386C91.358 676.918 91.19 676.486 90.998 676.09Z" fill="white"/>
<path d="M1273.6 85H646.4C642.865 85 640 91.6124 640 99.7692V550.231C640 558.388 642.865 565 646.4 565H1273.6C1277.13 565 1280 558.388 1280 550.231V99.7692C1280 91.6124 1277.13 85 1273.6 85Z" fill="#282828" stroke="#444444" stroke-width="2"/>
<path d="M666.49 97.076C666.49 97.4 666.604 97.682 666.832 97.922C667.072 98.15 667.354 98.264 667.678 98.264C668.014 98.264 668.296 98.15 668.524 97.922C668.764 97.682 668.884 97.4 668.884 97.076C668.884 96.74 668.764 96.458 668.524 96.23C668.296 95.99 668.014 95.87 667.678 95.87C667.354 95.87 667.072 95.99 666.832 96.23C666.604 96.458 666.49 96.74 666.49 97.076ZM665.662 97.076C665.662 96.704 665.752 96.368 665.932 96.068C666.124 95.756 666.37 95.51 666.67 95.33C666.97 95.138 667.306 95.042 667.678 95.042C668.05 95.042 668.386 95.138 668.686 95.33C668.998 95.51 669.244 95.756 669.424 96.068C669.616 96.368 669.712 96.704 669.712 97.076C669.712 97.448 669.616 97.784 669.424 98.084C669.244 98.384 668.998 98.63 668.686 98.822C668.386 99.002 668.05 99.092 667.678 99.092C667.306 99.092 666.97 99.002 666.67 98.822C666.37 98.63 666.124 98.384 665.932 98.084C665.752 97.784 665.662 97.448 665.662 97.076ZM667.228 98.282C667.168 98.402 667.114 98.54 667.066 98.696C667.03 98.84 666.994 99.002 666.958 99.182C666.862 99.65 666.736 100.172 666.58 100.748C666.424 101.324 666.232 101.918 666.004 102.53C665.788 103.13 665.536 103.712 665.248 104.276C664.96 104.84 664.636 105.356 664.276 105.824C663.724 106.52 663.112 107.168 662.44 107.768C661.768 108.368 661 108.908 660.136 109.388C659.272 109.868 658.288 110.282 657.184 110.63L655.96 109.28C657.136 108.992 658.15 108.632 659.002 108.2C659.866 107.768 660.622 107.282 661.27 106.742C661.918 106.19 662.488 105.596 662.98 104.96C663.412 104.408 663.784 103.79 664.096 103.106C664.42 102.41 664.69 101.714 664.906 101.018C665.122 100.31 665.266 99.668 665.338 99.092C665.17 99.092 664.852 99.092 664.384 99.092C663.916 99.092 663.364 99.092 662.728 99.092C662.092 99.092 661.426 99.092 660.73 99.092C660.046 99.092 659.386 99.092 658.75 99.092C658.114 99.092 657.562 99.092 657.094 99.092C656.626 99.092 656.308 99.092 656.14 99.092C655.78 99.092 655.45 99.098 655.15 99.11C654.85 99.122 654.58 99.134 654.34 99.146V97.544C654.508 97.568 654.694 97.592 654.898 97.616C655.102 97.628 655.312 97.64 655.528 97.652C655.744 97.664 655.948 97.67 656.14 97.67C656.284 97.67 656.542 97.67 656.914 97.67C657.286 97.67 657.724 97.67 658.228 97.67C658.744 97.67 659.29 97.67 659.866 97.67C660.454 97.67 661.03 97.67 661.594 97.67C662.17 97.67 662.704 97.67 663.196 97.67C663.7 97.67 664.126 97.67 664.474 97.67C664.822 97.67 665.056 97.67 665.176 97.67C665.308 97.67 665.458 97.664 665.626 97.652C665.794 97.64 665.962 97.616 666.13 97.58L667.228 98.282ZM673.996 109.424C674.068 109.28 674.116 109.142 674.14 109.01C674.164 108.878 674.176 108.722 674.176 108.542C674.176 108.362 674.176 108.026 674.176 107.534C674.176 107.042 674.176 106.454 674.176 105.77C674.176 105.086 674.176 104.372 674.176 103.628C674.176 102.872 674.176 102.14 674.176 101.432C674.176 100.712 674.176 100.076 674.176 99.524C674.176 98.96 674.176 98.534 674.176 98.246C674.176 98.09 674.164 97.904 674.14 97.688C674.128 97.472 674.11 97.268 674.086 97.076C674.074 96.884 674.05 96.728 674.014 96.608H675.796C675.76 96.824 675.73 97.088 675.706 97.4C675.682 97.7 675.67 97.982 675.67 98.246C675.67 98.486 675.67 98.834 675.67 99.29C675.67 99.746 675.67 100.268 675.67 100.856C675.67 101.432 675.67 102.044 675.67 102.692C675.67 103.34 675.67 103.976 675.67 104.6C675.67 105.224 675.67 105.806 675.67 106.346C675.67 106.874 675.67 107.324 675.67 107.696C675.67 108.068 675.67 108.32 675.67 108.452C676.534 108.236 677.422 107.93 678.334 107.534C679.258 107.138 680.158 106.676 681.034 106.148C681.922 105.608 682.75 105.02 683.518 104.384C684.298 103.736 684.964 103.046 685.516 102.314L686.326 103.574C685.162 105.026 683.674 106.298 681.862 107.39C680.062 108.482 678.04 109.352 675.796 110C675.7 110.024 675.586 110.06 675.454 110.108C675.322 110.168 675.184 110.24 675.04 110.324L673.996 109.424ZM701.104 95.888C701.26 96.104 701.428 96.362 701.608 96.662C701.788 96.95 701.962 97.244 702.13 97.544C702.31 97.844 702.46 98.114 702.58 98.354L701.608 98.804C701.428 98.432 701.2 98.012 700.924 97.544C700.648 97.064 700.39 96.65 700.15 96.302L701.104 95.888ZM703.084 95.168C703.24 95.396 703.414 95.66 703.606 95.96C703.798 96.26 703.978 96.56 704.146 96.86C704.326 97.148 704.476 97.4 704.596 97.616L703.624 98.066C703.432 97.67 703.198 97.244 702.922 96.788C702.646 96.32 702.382 95.918 702.13 95.582L703.084 95.168ZM693.022 96.5C692.998 96.704 692.974 96.938 692.95 97.202C692.938 97.454 692.932 97.706 692.932 97.958C692.932 98.114 692.932 98.426 692.932 98.894C692.932 99.35 692.932 99.902 692.932 100.55C692.932 101.186 692.932 101.864 692.932 102.584C692.932 103.292 692.932 103.976 692.932 104.636C692.932 105.296 692.932 105.878 692.932 106.382C692.932 106.874 692.932 107.234 692.932 107.462C692.932 107.918 693.028 108.236 693.22 108.416C693.424 108.584 693.748 108.71 694.192 108.794C694.48 108.842 694.834 108.878 695.254 108.902C695.686 108.926 696.124 108.938 696.568 108.938C697.048 108.938 697.564 108.926 698.116 108.902C698.668 108.878 699.226 108.842 699.79 108.794C700.366 108.746 700.906 108.686 701.41 108.614C701.914 108.542 702.352 108.458 702.724 108.362V110C702.208 110.084 701.584 110.15 700.852 110.198C700.132 110.258 699.388 110.3 698.62 110.324C697.864 110.36 697.156 110.378 696.496 110.378C695.968 110.378 695.446 110.36 694.93 110.324C694.426 110.3 693.988 110.258 693.616 110.198C692.92 110.078 692.386 109.844 692.014 109.496C691.642 109.136 691.456 108.59 691.456 107.858C691.456 107.558 691.456 107.138 691.456 106.598C691.456 106.058 691.456 105.44 691.456 104.744C691.456 104.048 691.456 103.34 691.456 102.62C691.456 101.888 691.456 101.198 691.456 100.55C691.456 99.902 691.456 99.35 691.456 98.894C691.456 98.426 691.456 98.114 691.456 97.958C691.456 97.802 691.45 97.64 691.438 97.472C691.438 97.304 691.426 97.136 691.402 96.968C691.39 96.788 691.372 96.632 691.348 96.5H693.022ZM692.266 102.17C692.806 102.05 693.4 101.906 694.048 101.738C694.708 101.558 695.374 101.366 696.046 101.162C696.73 100.958 697.39 100.742 698.026 100.514C698.674 100.286 699.256 100.058 699.772 99.83C700.048 99.71 700.318 99.584 700.582 99.452C700.846 99.32 701.104 99.176 701.356 99.02L701.986 100.46C701.734 100.568 701.452 100.688 701.14 100.82C700.84 100.94 700.558 101.054 700.294 101.162C699.73 101.39 699.1 101.624 698.404 101.864C697.72 102.104 697.012 102.338 696.28 102.566C695.548 102.782 694.834 102.986 694.138 103.178C693.454 103.37 692.83 103.532 692.266 103.664V102.17ZM719.266 101.432C719.242 101.516 719.218 101.612 719.194 101.72C719.17 101.828 719.152 101.918 719.14 101.99C719.116 102.266 719.068 102.638 718.996 103.106C718.936 103.574 718.864 104.09 718.78 104.654C718.696 105.218 718.612 105.782 718.528 106.346C718.444 106.898 718.366 107.408 718.294 107.876C718.234 108.332 718.18 108.686 718.132 108.938H716.602C716.65 108.734 716.704 108.422 716.764 108.002C716.836 107.57 716.914 107.084 716.998 106.544C717.094 106.004 717.178 105.464 717.25 104.924C717.322 104.372 717.382 103.874 717.43 103.43C717.49 102.974 717.526 102.626 717.538 102.386C717.31 102.386 716.986 102.386 716.566 102.386C716.146 102.386 715.684 102.386 715.18 102.386C714.688 102.386 714.202 102.386 713.722 102.386C713.242 102.386 712.828 102.386 712.48 102.386C712.144 102.386 711.922 102.386 711.814 102.386C711.55 102.386 711.298 102.392 711.058 102.404C710.83 102.416 710.602 102.428 710.374 102.44V100.928C710.518 100.952 710.668 100.97 710.824 100.982C710.992 100.994 711.16 101.006 711.328 101.018C711.496 101.03 711.652 101.036 711.796 101.036C711.94 101.036 712.186 101.036 712.534 101.036C712.882 101.036 713.278 101.036 713.722 101.036C714.178 101.036 714.64 101.036 715.108 101.036C715.576 101.036 716.002 101.036 716.386 101.036C716.782 101.036 717.076 101.036 717.268 101.036C717.376 101.036 717.484 101.03 717.592 101.018C717.712 101.006 717.826 100.994 717.934 100.982C718.042 100.958 718.12 100.934 718.168 100.91L719.266 101.432ZM708.682 108.362C708.898 108.374 709.132 108.392 709.384 108.416C709.636 108.428 709.9 108.434 710.176 108.434C710.332 108.434 710.656 108.434 711.148 108.434C711.652 108.434 712.246 108.434 712.93 108.434C713.614 108.434 714.328 108.434 715.072 108.434C715.828 108.434 716.548 108.434 717.232 108.434C717.928 108.434 718.522 108.434 719.014 108.434C719.506 108.434 719.83 108.434 719.986 108.434C720.178 108.434 720.412 108.428 720.688 108.416C720.976 108.404 721.216 108.392 721.408 108.38V109.838C721.3 109.826 721.162 109.82 720.994 109.82C720.826 109.82 720.658 109.82 720.49 109.82C720.322 109.808 720.172 109.802 720.04 109.802C719.872 109.802 719.536 109.802 719.032 109.802C718.528 109.802 717.928 109.802 717.232 109.802C716.536 109.802 715.81 109.802 715.054 109.802C714.298 109.802 713.578 109.802 712.894 109.802C712.21 109.802 711.622 109.802 711.13 109.802C710.638 109.802 710.32 109.802 710.176 109.802C709.9 109.802 709.648 109.808 709.42 109.82C709.192 109.82 708.946 109.832 708.682 109.856V108.362ZM725.836 102.206C726.016 102.218 726.238 102.236 726.502 102.26C726.766 102.272 727.054 102.284 727.366 102.296C727.69 102.296 728.014 102.296 728.338 102.296C728.53 102.296 728.824 102.296 729.22 102.296C729.628 102.296 730.102 102.296 730.642 102.296C731.182 102.296 731.752 102.296 732.352 102.296C732.964 102.296 733.57 102.296 734.17 102.296C734.782 102.296 735.358 102.296 735.898 102.296C736.45 102.296 736.924 102.296 737.32 102.296C737.716 102.296 738.01 102.296 738.202 102.296C738.658 102.296 739.048 102.284 739.372 102.26C739.696 102.236 739.954 102.218 740.146 102.206V103.97C739.966 103.958 739.696 103.94 739.336 103.916C738.988 103.892 738.616 103.88 738.22 103.88C738.028 103.88 737.728 103.88 737.32 103.88C736.912 103.88 736.438 103.88 735.898 103.88C735.37 103.88 734.8 103.88 734.188 103.88C733.576 103.88 732.964 103.88 732.352 103.88C731.752 103.88 731.182 103.88 730.642 103.88C730.114 103.88 729.646 103.88 729.238 103.88C728.83 103.88 728.53 103.88 728.338 103.88C727.846 103.88 727.378 103.892 726.934 103.916C726.49 103.928 726.124 103.946 725.836 103.97V102.206Z" fill="white"/>
<path d="M1273.6 577H646.4C642.865 577 640 580.813 640 585.516V898.484C640 903.187 642.865 907 646.4 907H1273.6C1277.13 907 1280 903.187 1280 898.484V585.516C1280 580.813 1277.13 577 1273.6 577Z" fill="#282828" stroke="#444444" stroke-width="2"/>
<path d="M668.722 583.588C668.638 583.684 668.554 583.78 668.47 583.876C668.386 583.96 668.32 584.05 668.272 584.146C667.936 584.698 667.528 585.298 667.048 585.946C666.58 586.594 666.046 587.26 665.446 587.944C664.846 588.628 664.192 589.3 663.484 589.96C662.788 590.62 662.038 591.238 661.234 591.814L660.118 590.824C660.85 590.32 661.534 589.774 662.17 589.186C662.806 588.598 663.388 588.004 663.916 587.404C664.456 586.792 664.924 586.21 665.32 585.658C665.728 585.106 666.046 584.614 666.274 584.182C666.046 584.182 665.704 584.182 665.248 584.182C664.792 584.182 664.264 584.182 663.664 584.182C663.064 584.182 662.428 584.182 661.756 584.182C661.096 584.182 660.436 584.182 659.776 584.182C659.128 584.182 658.522 584.182 657.958 584.182C657.394 584.182 656.908 584.182 656.5 584.182C656.104 584.182 655.834 584.182 655.69 584.182C655.462 584.182 655.228 584.188 654.988 584.2C654.748 584.212 654.526 584.224 654.322 584.236C654.13 584.248 653.974 584.266 653.854 584.29V582.67C654.022 582.694 654.208 582.718 654.412 582.742C654.616 582.766 654.826 582.784 655.042 582.796C655.27 582.808 655.486 582.814 655.69 582.814C655.822 582.814 656.08 582.814 656.464 582.814C656.86 582.814 657.34 582.814 657.904 582.814C658.468 582.814 659.074 582.814 659.722 582.814C660.382 582.814 661.048 582.814 661.72 582.814C662.404 582.814 663.052 582.814 663.664 582.814C664.288 582.814 664.84 582.814 665.32 582.814C665.8 582.814 666.166 582.814 666.418 582.814C666.934 582.814 667.324 582.766 667.588 582.67L668.722 583.588ZM660.244 592.138C659.968 591.862 659.644 591.556 659.272 591.22C658.912 590.884 658.534 590.548 658.138 590.212C657.742 589.864 657.37 589.552 657.022 589.276C656.674 588.988 656.374 588.76 656.122 588.592L657.292 587.638C657.496 587.794 657.766 588.01 658.102 588.286C658.438 588.55 658.804 588.85 659.2 589.186C659.608 589.522 660.01 589.864 660.406 590.212C660.802 590.56 661.162 590.896 661.486 591.22C661.87 591.58 662.266 591.976 662.674 592.408C663.094 592.84 663.49 593.26 663.862 593.668C664.234 594.076 664.546 594.442 664.798 594.766L663.484 595.81C663.268 595.498 662.974 595.132 662.602 594.712C662.242 594.28 661.852 593.842 661.432 593.398C661.012 592.942 660.616 592.522 660.244 592.138ZM678.694 584.632C678.778 584.812 678.886 585.082 679.018 585.442C679.15 585.79 679.288 586.162 679.432 586.558C679.588 586.954 679.726 587.332 679.846 587.692C679.966 588.04 680.056 588.316 680.116 588.52L678.784 588.988C678.736 588.784 678.652 588.508 678.532 588.16C678.424 587.812 678.298 587.44 678.154 587.044C678.01 586.636 677.866 586.258 677.722 585.91C677.578 585.562 677.464 585.286 677.38 585.082L678.694 584.632ZM685.21 585.64C685.15 585.82 685.096 585.988 685.048 586.144C685.012 586.288 684.976 586.42 684.94 586.54C684.7 587.524 684.376 588.49 683.968 589.438C683.56 590.374 683.032 591.25 682.384 592.066C681.556 593.122 680.62 594.004 679.576 594.712C678.544 595.42 677.524 595.966 676.516 596.35L675.328 595.144C676.024 594.928 676.726 594.64 677.434 594.28C678.154 593.92 678.832 593.488 679.468 592.984C680.116 592.48 680.686 591.922 681.178 591.31C681.61 590.782 681.994 590.188 682.33 589.528C682.678 588.868 682.966 588.166 683.194 587.422C683.422 586.678 683.578 585.922 683.662 585.154L685.21 585.64ZM674.518 585.532C674.614 585.736 674.734 586.012 674.878 586.36C675.022 586.708 675.172 587.092 675.328 587.512C675.496 587.92 675.652 588.316 675.796 588.7C675.952 589.072 676.072 589.372 676.156 589.6L674.788 590.104C674.716 589.876 674.608 589.57 674.464 589.186C674.332 588.79 674.182 588.382 674.014 587.962C673.846 587.542 673.684 587.158 673.528 586.81C673.384 586.462 673.27 586.21 673.186 586.054L674.518 585.532ZM702.49 582.076C702.49 582.4 702.604 582.682 702.832 582.922C703.072 583.15 703.354 583.264 703.678 583.264C704.014 583.264 704.296 583.15 704.524 582.922C704.764 582.682 704.884 582.4 704.884 582.076C704.884 581.74 704.764 581.458 704.524 581.23C704.296 580.99 704.014 580.87 703.678 580.87C703.354 580.87 703.072 580.99 702.832 581.23C702.604 581.458 702.49 581.74 702.49 582.076ZM701.662 582.076C701.662 581.704 701.752 581.368 701.932 581.068C702.124 580.756 702.37 580.51 702.67 580.33C702.97 580.138 703.306 580.042 703.678 580.042C704.05 580.042 704.386 580.138 704.686 580.33C704.998 580.51 705.244 580.756 705.424 581.068C705.616 581.368 705.712 581.704 705.712 582.076C705.712 582.448 705.616 582.784 705.424 583.084C705.244 583.384 704.998 583.63 704.686 583.822C704.386 584.002 704.05 584.092 703.678 584.092C703.306 584.092 702.97 584.002 702.67 583.822C702.37 583.63 702.124 583.384 701.932 583.084C701.752 582.784 701.662 582.448 701.662 582.076ZM703.228 583.282C703.168 583.402 703.114 583.54 703.066 583.696C703.03 583.84 702.994 584.002 702.958 584.182C702.862 584.65 702.736 585.172 702.58 585.748C702.424 586.324 702.232 586.918 702.004 587.53C701.788 588.13 701.536 588.712 701.248 589.276C700.96 589.84 700.636 590.356 700.276 590.824C699.724 591.52 699.112 592.168 698.44 592.768C697.768 593.368 697 593.908 696.136 594.388C695.272 594.868 694.288 595.282 693.184 595.63L691.96 594.28C693.136 593.992 694.15 593.632 695.002 593.2C695.866 592.768 696.622 592.282 697.27 591.742C697.918 591.19 698.488 590.596 698.98 589.96C699.412 589.408 699.784 588.79 700.096 588.106C700.42 587.41 700.69 586.714 700.906 586.018C701.122 585.31 701.266 584.668 701.338 584.092C701.17 584.092 700.852 584.092 700.384 584.092C699.916 584.092 699.364 584.092 698.728 584.092C698.092 584.092 697.426 584.092 696.73 584.092C696.046 584.092 695.386 584.092 694.75 584.092C694.114 584.092 693.562 584.092 693.094 584.092C692.626 584.092 692.308 584.092 692.14 584.092C691.78 584.092 691.45 584.098 691.15 584.11C690.85 584.122 690.58 584.134 690.34 584.146V582.544C690.508 582.568 690.694 582.592 690.898 582.616C691.102 582.628 691.312 582.64 691.528 582.652C691.744 582.664 691.948 582.67 692.14 582.67C692.284 582.67 692.542 582.67 692.914 582.67C693.286 582.67 693.724 582.67 694.228 582.67C694.744 582.67 695.29 582.67 695.866 582.67C696.454 582.67 697.03 582.67 697.594 582.67C698.17 582.67 698.704 582.67 699.196 582.67C699.7 582.67 700.126 582.67 700.474 582.67C700.822 582.67 701.056 582.67 701.176 582.67C701.308 582.67 701.458 582.664 701.626 582.652C701.794 582.64 701.962 582.616 702.13 582.58L703.228 583.282Z" fill="white"/>
</g>
<defs>
<clipPath id="clip0_0_1">
<rect width="1280" height="960" fill="white"/>
</clipPath>
</defs>
</svg>
